<svg width="50" height="32" viewBox="0 0 42 32" fill="none" xmlns="http://www.w3.org/2000/svg">
<path d="M15.4702 22.5297L5.47015 12.5297C5.33767 12.3875 5.26555 12.1995 5.26898 12.0052C5.2724 11.8109 5.35112 11.6255 5.48853 11.4881C5.62594 11.3507 5.81133 11.272 6.00563 11.2685C6.19993 11.2651 6.38798 11.3372 6.53015 11.4697L16.0002 20.9385L25.4702 11.4697C25.6123 11.3372 25.8004 11.2651 25.9947 11.2685C26.189 11.272 26.3744 11.3507 26.5118 11.4881C26.6492 11.6255 26.7279 11.8109 26.7313 12.0052C26.7348 12.1995 26.6626 12.3875 26.5302 12.5297L16.5302 22.5297C16.3895 22.6702 16.1989 22.7491 16.0002 22.7491C15.8014 22.7491 15.6108 22.6702 15.4702 22.5297Z" fill="#765BA8"/>
</svg>
